{
  "asset": {
    "version": "2.0",
    "generator": "THREE.GLTFExporter"
  },
  "scenes": [
    {
      "nodes": [
        7
      ],
      "name": "OSG_Scene"
    }
  ],
  "scene": 0,
  "nodes": [
    {
      "name": "Mesh1_rp_dennis_posed_004_0",
      "mesh": 0
    },
    {
      "name": "Mesh1",
      "children": [
        0
      ]
    },
    {
      "name": "rp_dennis_posed_004",
      "children": [
        1
      ]
    },
    {
      "name": "Model",
      "children": [
        2
      ]
    },
    {
      "name": "RootNode",
      "children": [
        3
      ]
    },
    {
      "matrix": [
        1,
        0,
        0,
        0,
        0,
        2.220446049250313e-16,
        1,
        0,
        0,
        -1,
        2.220446049250313e-16,
        0,
        0,
        0,
        0,
        1
      ],
      "name": "maininsuitfbx",
      "children": [
        4
      ]
    },
    {
      "name": "RootNode_(model_correction_matrix)",
      "children": [
        5
      ]
    },
    {
      "matrix": [
        1,
        0,
        0,
        0,
        0,
        2.220446049250313e-16,
        -1,
        0,
        0,
        1,
        2.220446049250313e-16,
        0,
        0,
        0,
        0,
        1
      ],
      "name": "RootNode_(gltf_orientation_matrix)",
      "children": [
        6
      ]
    }
  ],
  "bufferViews": [
    {
      "buffer": 0,
      "byteOffset": 0,
      "byteLength": 307416,
      "target": 34962,
      "byteStride": 12
    },
    {
      "buffer": 0,
      "byteOffset": 307416,
      "byteLength": 307416,
      "target": 34962,
      "byteStride": 12
    },
    {
      "buffer": 0,
      "byteOffset": 614832,
      "byteLength": 204944,
      "target": 34962,
      "byteStride": 8
    },
    {
      "buffer": 0,
      "byteOffset": 819776,
      "byteLength": 204944,
      "target": 34962,
      "byteStride": 8
    },
    {
      "buffer": 0,
      "byteOffset": 1024720,
      "byteLength": 359676,
      "target": 34963
    }
  ],
  "buffers": [
    {
      "byteLength": 1384396,
      "uri": "data:application/octet-stream;base64,"
    }
  ],
  "accessors": [
    {
      "bufferView": 0,
      "componentType": 5126,
      "count": 25618,
      "max": [
        0.9999307990074158,
        0.9999566078186035,
        0.9999897480010986
      ],
      "min": [
        -0.9999854564666748,
        -0.9999297857284546,
        -0.9999702572822571
      ],
      "type": "VEC3"
    },
    {
      "bufferView": 1,
      "componentType": 5126,
      "count": 25618,
      "max": [
        22.4773006439209,
        186.03099060058594,
        35.200199127197266
      ],
      "min": [
        -23.400699615478516,
        -1.1087000370025635,
        -28.992000579833984
      ],
      "type": "VEC3"
    },
    {
      "bufferView": 2,
      "componentType": 5126,
      "count": 25618,
      "max": [
        0.9944999814033508,
        0.9980000257492065
      ],
      "min": [
        -0.11792530119419098,
        -0.02392604947090149
      ],
      "type": "VEC2"
    },
    {
      "bufferView": 3,
      "componentType": 5126,
      "count": 25618,
      "max": [
        0.9944999814033508,
        0.9980000257492065
      ],
      "min": [
        -0.11792530119419098,
        -0.02392604947090149
      ],
      "type": "VEC2"
    },
    {
      "bufferView": 4,
      "componentType": 5125,
      "count": 89919,
      "max": [
        25617
      ],
      "min": [
        0
      ],
      "type": "SCALAR"
    }
  ],
  "materials": [
    {
      "pbrMetallicRoughness": {
        "metallicFactor": 0,
        "roughnessFactor": 0.9302134966,
        "baseColorTexture": {
          "index": 0
        }
      },
      "doubleSided": true,
      "name": "rp_dennis_posed_004"
    }
  ],
  "textures": [
    {
      "sampler": 0,
      "source": 0
    }
  ],
  "samplers": [
    {
      "magFilter": 9729,
      "minFilter": 9987
    }
  ],
  "images": [
    {
      "mimeType": "image/png",
      "uri": "data:image/png;base64,"
    }
  ],
  "meshes": [
    {
      "primitives": [
        {
          "mode": 4,
          "attributes": {
            "NORMAL": 0,
            "POSITION": 1,
            "TEXCOORD_0": 2,
            "TEXCOORD_1": 3
          },
          "indices": 4,
          "material": 0
        }
      ]
    }
  ]
}